# MagicaVoxel @ Ephtracy

# group
g Blue

# material
mtllib Blue.mtl
usemtl palette

# normals
vn -1 0 0
vn 1 0 0
vn 0 0 1
vn 0 0 -1
vn 0 -1 0
vn 0 1 0

# texcoords
vt 0.310547 0.5
vt 0.751953 0.5
vt 0.958984 0.5
vt 0.962891 0.5
vt 0.982422 0.5
vt 0.986328 0.5
vt 0.990234 0.5

# verts
v -10 1 11
v -10 1 9
v -10 1 7
v -10 1 6
v -10 1 5
v -10 1 4
v -10 3 11
v -10 3 9
v -10 3 7
v -10 3 6
v -10 3 5
v -10 3 4
v -9 0 11
v -9 0 9
v -9 0 7
v -9 0 6
v -9 0 5
v -9 0 4
v -9 1 18
v -9 1 13
v -9 1 11
v -9 1 9
v -9 1 7
v -9 1 6
v -9 1 5
v -9 1 4
v -9 2 15
v -9 2 13
v -9 3 18
v -9 3 15
v -9 3 11
v -9 3 9
v -9 3 7
v -9 3 6
v -9 3 5
v -9 3 4
v -9 4 11
v -9 4 9
v -9 4 7
v -9 4 6
v -9 4 5
v -9 4 4
v -8 0 19
v -8 0 12
v -8 1 18
v -8 1 13
v -8 2 15
v -8 2 14
v -8 2 13
v -8 3 18
v -8 3 15
v -8 4 19
v -8 4 15
v -8 4 14
v -8 4 12
v -7 4 16
v -7 4 15
v -7 5 16
v -7 5 15
v -6 1 19
v -6 1 18
v -6 1 12
v -6 1 11
v -6 3 19
v -6 3 18
v -6 3 12
v -6 3 11
v -6 4 15
v -6 4 14
v -6 4 13
v -6 5 15
v -6 5 13
v -4 1 9
v -4 1 7
v -4 1 6
v -4 1 5
v -4 1 4
v -4 3 9
v -4 3 7
v -4 3 6
v -4 3 5
v -4 3 4
v -3 0 11
v -3 0 9
v -3 0 7
v -3 0 6
v -3 0 5
v -3 0 4
v -3 1 19
v -3 1 18
v -3 1 11
v -3 1 9
v -3 1 7
v -3 1 6
v -3 1 5
v -3 1 4
v -3 3 19
v -3 3 18
v -3 3 11
v -3 3 9
v -3 3 7
v -3 3 6
v -3 3 5
v -3 3 4
v -3 4 11
v -3 4 9
v -3 4 7
v -3 4 6
v -3 4 5
v -3 4 4
v -7 0 11
v -7 0 9
v -7 0 7
v -7 0 6
v -7 0 5
v -7 0 4
v -7 1 19
v -7 1 18
v -7 1 11
v -7 1 9
v -7 1 7
v -7 1 6
v -7 1 5
v -7 1 4
v -7 3 19
v -7 3 18
v -7 3 11
v -7 3 9
v -7 3 7
v -7 3 6
v -7 3 5
v -7 3 4
v -7 4 11
v -7 4 9
v -7 4 7
v -7 4 6
v -7 4 5
v -7 4 4
v -6 1 9
v -6 1 7
v -6 1 6
v -6 1 5
v -6 1 4
v -6 3 9
v -6 3 7
v -6 3 6
v -6 3 5
v -6 3 4
v -4 1 19
v -4 1 18
v -4 1 12
v -4 1 11
v -4 3 19
v -4 3 18
v -4 3 12
v -4 3 11
v -4 4 15
v -4 4 14
v -4 4 13
v -4 5 15
v -4 5 13
v -3 4 16
v -3 4 15
v -3 5 16
v -3 5 15
v -2 0 19
v -2 0 12
v -2 1 18
v -2 1 13
v -2 2 15
v -2 2 14
v -2 2 13
v -2 3 18
v -2 3 15
v -2 4 19
v -2 4 15
v -2 4 14
v -2 4 12
v -1 0 11
v -1 0 9
v -1 0 7
v -1 0 6
v -1 0 5
v -1 0 4
v -1 1 18
v -1 1 13
v -1 1 11
v -1 1 9
v -1 1 7
v -1 1 6
v -1 1 5
v -1 1 4
v -1 2 15
v -1 2 13
v -1 3 18
v -1 3 15
v -1 3 11
v -1 3 9
v -1 3 7
v -1 3 6
v -1 3 5
v -1 3 4
v -1 4 11
v -1 4 9
v -1 4 7
v -1 4 6
v -1 4 5
v -1 4 4
v 0 1 11
v 0 1 9
v 0 1 7
v 0 1 6
v 0 1 5
v 0 1 4
v 0 3 11
v 0 3 9
v 0 3 7
v 0 3 6
v 0 3 5
v 0 3 4
v -8 0 19
v -8 4 19
v -7 1 19
v -7 3 19
v -6 0 19
v -6 1 19
v -6 3 19
v -6 4 19
v -4 0 19
v -4 1 19
v -4 3 19
v -4 4 19
v -3 1 19
v -3 3 19
v -2 0 19
v -2 4 19
v -9 1 18
v -9 3 18
v -8 1 18
v -8 3 18
v -7 1 18
v -7 3 18
v -6 1 18
v -6 3 18
v -4 1 18
v -4 3 18
v -3 1 18
v -3 3 18
v -2 1 18
v -2 3 18
v -1 1 18
v -1 3 18
v -7 4 16
v -7 5 16
v -6 4 16
v -4 4 16
v -3 4 16
v -3 5 16
v -10 1 11
v -10 3 11
v -9 0 11
v -9 1 11
v -9 3 11
v -9 4 11
v -7 0 11
v -7 1 11
v -7 3 11
v -7 4 11
v -6 1 11
v -6 3 11
v -4 1 11
v -4 3 11
v -3 0 11
v -3 1 11
v -3 3 11
v -3 4 11
v -1 0 11
v -1 1 11
v -1 3 11
v -1 4 11
v 0 1 11
v 0 3 11
v -9 2 15
v -9 3 15
v -8 2 15
v -8 3 15
v -7 4 15
v -7 5 15
v -6 4 15
v -6 5 15
v -4 4 15
v -4 5 15
v -3 4 15
v -3 5 15
v -2 2 15
v -2 3 15
v -1 2 15
v -1 3 15
v -9 1 13
v -9 2 13
v -8 1 13
v -8 2 13
v -6 4 13
v -6 5 13
v -4 4 13
v -4 5 13
v -2 1 13
v -2 2 13
v -1 1 13
v -1 2 13
v -8 0 12
v -8 4 12
v -6 1 12
v -6 3 12
v -6 4 12
v -4 1 12
v -4 3 12
v -4 4 12
v -2 0 12
v -2 4 12
v -6 1 9
v -6 3 9
v -4 1 9
v -4 3 9
v -10 1 4
v -10 3 4
v -9 0 4
v -9 1 4
v -9 3 4
v -9 4 4
v -7 0 4
v -7 1 4
v -7 3 4
v -7 4 4
v -6 1 4
v -6 3 4
v -4 1 4
v -4 3 4
v -3 0 4
v -3 1 4
v -3 3 4
v -3 4 4
v -1 0 4
v -1 1 4
v -1 3 4
v -1 4 4
v 0 1 4
v 0 3 4
v -8 0 19
v -6 0 19
v -4 0 19
v -2 0 19
v -6 0 14
v -4 0 14
v -8 0 12
v -2 0 12
v -9 0 11
v -7 0 11
v -3 0 11
v -1 0 11
v -9 0 9
v -7 0 9
v -3 0 9
v -1 0 9
v -9 0 7
v -7 0 7
v -3 0 7
v -1 0 7
v -9 0 6
v -7 0 6
v -3 0 6
v -1 0 6
v -9 0 5
v -7 0 5
v -3 0 5
v -1 0 5
v -9 0 4
v -7 0 4
v -3 0 4
v -1 0 4
v -9 1 18
v -8 1 18
v -2 1 18
v -1 1 18
v -9 1 13
v -8 1 13
v -2 1 13
v -1 1 13
v -6 1 12
v -4 1 12
v -10 1 11
v -9 1 11
v -7 1 11
v -6 1 11
v -4 1 11
v -3 1 11
v -1 1 11
v 0 1 11
v -10 1 9
v -9 1 9
v -7 1 9
v -6 1 9
v -4 1 9
v -3 1 9
v -1 1 9
v 0 1 9
v -10 1 7
v -9 1 7
v -7 1 7
v -6 1 7
v -4 1 7
v -3 1 7
v -1 1 7
v 0 1 7
v -10 1 6
v -9 1 6
v -7 1 6
v -6 1 6
v -4 1 6
v -3 1 6
v -1 1 6
v 0 1 6
v -10 1 5
v -9 1 5
v -7 1 5
v -6 1 5
v -4 1 5
v -3 1 5
v -1 1 5
v 0 1 5
v -10 1 4
v -9 1 4
v -7 1 4
v -6 1 4
v -4 1 4
v -3 1 4
v -1 1 4
v 0 1 4
v -7 3 19
v -6 3 19
v -4 3 19
v -3 3 19
v -7 3 18
v -6 3 18
v -4 3 18
v -3 3 18
v -7 1 19
v -6 1 19
v -4 1 19
v -3 1 19
v -7 1 18
v -6 1 18
v -4 1 18
v -3 1 18
v -9 2 15
v -8 2 15
v -2 2 15
v -1 2 15
v -8 2 14
v -2 2 14
v -9 2 13
v -8 2 13
v -2 2 13
v -1 2 13
v -9 3 18
v -8 3 18
v -2 3 18
v -1 3 18
v -9 3 15
v -8 3 15
v -2 3 15
v -1 3 15
v -6 3 12
v -4 3 12
v -10 3 11
v -9 3 11
v -7 3 11
v -6 3 11
v -4 3 11
v -3 3 11
v -1 3 11
v 0 3 11
v -10 3 9
v -9 3 9
v -7 3 9
v -6 3 9
v -4 3 9
v -3 3 9
v -1 3 9
v 0 3 9
v -10 3 7
v -9 3 7
v -7 3 7
v -6 3 7
v -4 3 7
v -3 3 7
v -1 3 7
v 0 3 7
v -10 3 6
v -9 3 6
v -7 3 6
v -6 3 6
v -4 3 6
v -3 3 6
v -1 3 6
v 0 3 6
v -10 3 5
v -9 3 5
v -7 3 5
v -6 3 5
v -4 3 5
v -3 3 5
v -1 3 5
v 0 3 5
v -10 3 4
v -9 3 4
v -7 3 4
v -6 3 4
v -4 3 4
v -3 3 4
v -1 3 4
v 0 3 4
v -8 4 19
v -6 4 19
v -4 4 19
v -2 4 19
v -7 4 16
v -6 4 16
v -4 4 16
v -3 4 16
v -8 4 15
v -7 4 15
v -6 4 15
v -4 4 15
v -3 4 15
v -2 4 15
v -8 4 14
v -6 4 14
v -4 4 14
v -2 4 14
v -6 4 13
v -4 4 13
v -8 4 12
v -6 4 12
v -4 4 12
v -2 4 12
v -9 4 11
v -7 4 11
v -3 4 11
v -1 4 11
v -9 4 9
v -7 4 9
v -3 4 9
v -1 4 9
v -9 4 7
v -7 4 7
v -3 4 7
v -1 4 7
v -9 4 6
v -7 4 6
v -3 4 6
v -1 4 6
v -9 4 5
v -7 4 5
v -3 4 5
v -1 4 5
v -9 4 4
v -7 4 4
v -3 4 4
v -1 4 4
v -7 5 16
v -3 5 16
v -7 5 15
v -6 5 15
v -4 5 15
v -3 5 15
v -6 5 13
v -4 5 13

# faces
f 7/2/1 2/2/1 1/2/1
f 8/3/1 3/3/1 2/3/1
f 8/2/1 2/2/1 7/2/1
f 9/2/1 4/2/1 3/2/1
f 9/3/1 3/3/1 8/3/1
f 10/4/1 5/4/1 4/4/1
f 10/2/1 4/2/1 9/2/1
f 11/6/1 6/6/1 5/6/1
f 11/4/1 5/4/1 10/4/1
f 12/6/1 6/6/1 11/6/1
f 21/2/1 14/2/1 13/2/1
f 22/3/1 15/3/1 14/3/1
f 22/2/1 14/2/1 21/2/1
f 23/2/1 16/2/1 15/2/1
f 23/3/1 15/3/1 22/3/1
f 24/4/1 17/4/1 16/4/1
f 24/2/1 16/2/1 23/2/1
f 25/6/1 18/6/1 17/6/1
f 25/4/1 17/4/1 24/4/1
f 26/6/1 18/6/1 25/6/1
f 27/5/1 20/5/1 19/5/1
f 28/5/1 20/5/1 27/5/1
f 29/5/1 27/5/1 19/5/1
f 30/5/1 27/5/1 29/5/1
f 37/2/1 32/2/1 31/2/1
f 38/3/1 33/3/1 32/3/1
f 38/2/1 32/2/1 37/2/1
f 39/2/1 34/2/1 33/2/1
f 39/3/1 33/3/1 38/3/1
f 40/4/1 35/4/1 34/4/1
f 40/2/1 34/2/1 39/2/1
f 41/6/1 36/6/1 35/6/1
f 41/4/1 35/4/1 40/4/1
f 42/6/1 36/6/1 41/6/1
f 45/3/1 44/3/1 43/3/1
f 46/3/1 44/3/1 45/3/1
f 49/3/1 44/3/1 46/3/1
f 50/3/1 45/3/1 43/3/1
f 51/4/1 48/4/1 47/4/1
f 52/3/1 50/3/1 43/3/1
f 52/3/1 51/3/1 50/3/1
f 53/4/1 48/4/1 51/4/1
f 53/3/1 51/3/1 52/3/1
f 54/3/1 49/3/1 48/3/1
f 54/4/1 48/4/1 53/4/1
f 55/3/1 44/3/1 49/3/1
f 55/3/1 49/3/1 54/3/1
f 58/5/1 57/5/1 56/5/1
f 59/5/1 57/5/1 58/5/1
f 64/2/1 61/2/1 60/2/1
f 65/2/1 61/2/1 64/2/1
f 66/3/1 63/3/1 62/3/1
f 67/3/1 63/3/1 66/3/1
f 71/5/1 69/5/1 68/5/1
f 71/5/1 70/5/1 69/5/1
f 72/5/1 70/5/1 71/5/1
f 78/3/1 74/3/1 73/3/1
f 79/2/1 75/2/1 74/2/1
f 79/3/1 74/3/1 78/3/1
f 80/4/1 76/4/1 75/4/1
f 80/2/1 75/2/1 79/2/1
f 81/6/1 77/6/1 76/6/1
f 81/4/1 76/4/1 80/4/1
f 82/6/1 77/6/1 81/6/1
f 91/2/1 84/2/1 83/2/1
f 92/3/1 85/3/1 84/3/1
f 92/2/1 84/2/1 91/2/1
f 93/2/1 86/2/1 85/2/1
f 93/3/1 85/3/1 92/3/1
f 94/4/1 87/4/1 86/4/1
f 94/2/1 86/2/1 93/2/1
f 95/6/1 88/6/1 87/6/1
f 95/4/1 87/4/1 94/4/1
f 96/6/1 88/6/1 95/6/1
f 97/3/1 90/3/1 89/3/1
f 98/3/1 90/3/1 97/3/1
f 105/2/1 100/2/1 99/2/1
f 106/3/1 101/3/1 100/3/1
f 106/2/1 100/2/1 105/2/1
f 107/2/1 102/2/1 101/2/1
f 107/3/1 101/3/1 106/3/1
f 108/4/1 103/4/1 102/4/1
f 108/2/1 102/2/1 107/2/1
f 109/6/1 104/6/1 103/6/1
f 109/4/1 103/4/1 108/4/1
f 110/6/1 104/6/1 109/6/1
f 111/2/2 112/2/2 119/2/2
f 112/3/2 113/3/2 120/3/2
f 119/2/2 112/2/2 120/2/2
f 113/2/2 114/2/2 121/2/2
f 120/3/2 113/3/2 121/3/2
f 114/4/2 115/4/2 122/4/2
f 121/2/2 114/2/2 122/2/2
f 115/6/2 116/6/2 123/6/2
f 122/4/2 115/4/2 123/4/2
f 123/6/2 116/6/2 124/6/2
f 117/3/2 118/3/2 125/3/2
f 125/3/2 118/3/2 126/3/2
f 127/2/2 128/2/2 133/2/2
f 128/3/2 129/3/2 134/3/2
f 133/2/2 128/2/2 134/2/2
f 129/2/2 130/2/2 135/2/2
f 134/3/2 129/3/2 135/3/2
f 130/4/2 131/4/2 136/4/2
f 135/2/2 130/2/2 136/2/2
f 131/6/2 132/6/2 137/6/2
f 136/4/2 131/4/2 137/4/2
f 137/6/2 132/6/2 138/6/2
f 139/3/2 140/3/2 144/3/2
f 140/2/2 141/2/2 145/2/2
f 144/3/2 140/3/2 145/3/2
f 141/4/2 142/4/2 146/4/2
f 145/2/2 141/2/2 146/2/2
f 142/6/2 143/6/2 147/6/2
f 146/4/2 142/4/2 147/4/2
f 147/6/2 143/6/2 148/6/2
f 149/2/2 150/2/2 153/2/2
f 153/2/2 150/2/2 154/2/2
f 151/3/2 152/3/2 155/3/2
f 155/3/2 152/3/2 156/3/2
f 157/5/2 158/5/2 160/5/2
f 158/5/2 159/5/2 160/5/2
f 160/5/2 159/5/2 161/5/2
f 162/5/2 163/5/2 164/5/2
f 164/5/2 163/5/2 165/5/2
f 166/3/2 167/3/2 168/3/2
f 168/3/2 167/3/2 169/3/2
f 169/3/2 167/3/2 172/3/2
f 166/3/2 168/3/2 173/3/2
f 170/4/2 171/4/2 174/4/2
f 166/3/2 173/3/2 175/3/2
f 173/3/2 174/3/2 175/3/2
f 174/4/2 171/4/2 176/4/2
f 175/3/2 174/3/2 176/3/2
f 171/3/2 172/3/2 177/3/2
f 176/4/2 171/4/2 177/4/2
f 172/3/2 167/3/2 178/3/2
f 177/3/2 172/3/2 178/3/2
f 179/2/2 180/2/2 187/2/2
f 180/3/2 181/3/2 188/3/2
f 187/2/2 180/2/2 188/2/2
f 181/2/2 182/2/2 189/2/2
f 188/3/2 181/3/2 189/3/2
f 182/4/2 183/4/2 190/4/2
f 189/2/2 182/2/2 190/2/2
f 183/6/2 184/6/2 191/6/2
f 190/4/2 183/4/2 191/4/2
f 191/6/2 184/6/2 192/6/2
f 185/5/2 186/5/2 193/5/2
f 193/5/2 186/5/2 194/5/2
f 185/5/2 193/5/2 195/5/2
f 195/5/2 193/5/2 196/5/2
f 197/2/2 198/2/2 203/2/2
f 198/3/2 199/3/2 204/3/2
f 203/2/2 198/2/2 204/2/2
f 199/2/2 200/2/2 205/2/2
f 204/3/2 199/3/2 205/3/2
f 200/4/2 201/4/2 206/4/2
f 205/2/2 200/2/2 206/2/2
f 201/6/2 202/6/2 207/6/2
f 206/4/2 201/4/2 207/4/2
f 207/6/2 202/6/2 208/6/2
f 209/2/2 210/2/2 215/2/2
f 210/3/2 211/3/2 216/3/2
f 215/2/2 210/2/2 216/2/2
f 211/2/2 212/2/2 217/2/2
f 216/3/2 211/3/2 217/3/2
f 212/4/2 213/4/2 218/4/2
f 217/2/2 212/2/2 218/2/2
f 213/6/2 214/6/2 219/6/2
f 218/4/2 213/4/2 219/4/2
f 219/6/2 214/6/2 220/6/2
f 223/3/3 222/3/3 221/3/3
f 224/3/3 222/3/3 223/3/3
f 225/3/3 223/3/3 221/3/3
f 226/3/3 223/3/3 225/3/3
f 227/3/3 222/3/3 224/3/3
f 228/3/3 222/3/3 227/3/3
f 229/2/3 226/2/3 225/2/3
f 229/2/3 227/2/3 226/2/3
f 229/2/3 228/2/3 227/2/3
f 230/2/3 228/2/3 229/2/3
f 231/2/3 228/2/3 230/2/3
f 232/2/3 228/2/3 231/2/3
f 233/3/3 230/3/3 229/3/3
f 234/3/3 232/3/3 231/3/3
f 235/3/3 233/3/3 229/3/3
f 235/3/3 234/3/3 233/3/3
f 236/3/3 232/3/3 234/3/3
f 236/3/3 234/3/3 235/3/3
f 239/5/3 238/5/3 237/5/3
f 240/5/3 238/5/3 239/5/3
f 243/7/3 242/7/3 241/7/3
f 244/7/3 242/7/3 243/7/3
f 247/7/3 246/7/3 245/7/3
f 248/7/3 246/7/3 247/7/3
f 251/5/3 250/5/3 249/5/3
f 252/5/3 250/5/3 251/5/3
f 255/5/3 254/5/3 253/5/3
f 256/5/3 254/5/3 255/5/3
f 257/5/3 254/5/3 256/5/3
f 258/5/3 254/5/3 257/5/3
f 262/2/3 260/2/3 259/2/3
f 263/2/3 260/2/3 262/2/3
f 265/2/3 262/2/3 261/2/3
f 265/2/3 264/2/3 263/2/3
f 265/2/3 263/2/3 262/2/3
f 266/2/3 264/2/3 265/2/3
f 267/2/3 264/2/3 266/2/3
f 268/2/3 264/2/3 267/2/3
f 269/2/3 267/2/3 266/2/3
f 270/2/3 267/2/3 269/2/3
f 274/2/3 272/2/3 271/2/3
f 275/2/3 272/2/3 274/2/3
f 277/2/3 275/2/3 274/2/3
f 277/2/3 276/2/3 275/2/3
f 277/2/3 274/2/3 273/2/3
f 278/2/3 276/2/3 277/2/3
f 279/2/3 276/2/3 278/2/3
f 280/2/3 276/2/3 279/2/3
f 281/2/3 279/2/3 278/2/3
f 282/2/3 279/2/3 281/2/3
f 283/5/4 284/5/4 285/5/4
f 285/5/4 284/5/4 286/5/4
f 287/5/4 288/5/4 289/5/4
f 289/5/4 288/5/4 290/5/4
f 291/5/4 292/5/4 293/5/4
f 293/5/4 292/5/4 294/5/4
f 295/5/4 296/5/4 297/5/4
f 297/5/4 296/5/4 298/5/4
f 299/5/4 300/5/4 301/5/4
f 301/5/4 300/5/4 302/5/4
f 303/5/4 304/5/4 305/5/4
f 305/5/4 304/5/4 306/5/4
f 307/5/4 308/5/4 309/5/4
f 309/5/4 308/5/4 310/5/4
f 311/3/4 312/3/4 313/3/4
f 313/3/4 312/3/4 314/3/4
f 314/3/4 312/3/4 315/3/4
f 311/3/4 313/3/4 316/3/4
f 314/2/4 315/2/4 317/2/4
f 317/2/4 315/2/4 318/2/4
f 311/3/4 316/3/4 319/3/4
f 316/3/4 317/3/4 319/3/4
f 317/3/4 318/3/4 319/3/4
f 319/3/4 318/3/4 320/3/4
f 321/3/4 322/3/4 323/3/4
f 323/3/4 322/3/4 324/3/4
f 325/6/4 326/6/4 328/6/4
f 328/6/4 326/6/4 329/6/4
f 327/6/4 328/6/4 331/6/4
f 328/7/4 329/7/4 332/7/4
f 331/6/4 328/6/4 332/6/4
f 329/6/4 330/6/4 333/6/4
f 332/7/4 329/7/4 333/7/4
f 333/6/4 330/6/4 334/6/4
f 332/6/4 333/6/4 335/6/4
f 335/6/4 333/6/4 336/6/4
f 337/6/4 338/6/4 340/6/4
f 340/6/4 338/6/4 341/6/4
f 339/6/4 340/6/4 343/6/4
f 340/7/4 341/7/4 344/7/4
f 343/6/4 340/6/4 344/6/4
f 341/6/4 342/6/4 345/6/4
f 344/7/4 341/7/4 345/7/4
f 345/6/4 342/6/4 346/6/4
f 344/6/4 345/6/4 347/6/4
f 347/6/4 345/6/4 348/6/4
f 353/3/5 350/3/5 349/3/5
f 353/2/5 351/2/5 350/2/5
f 354/3/5 352/3/5 351/3/5
f 354/2/5 351/2/5 353/2/5
f 355/3/5 353/3/5 349/3/5
f 355/3/5 354/3/5 353/3/5
f 356/3/5 352/3/5 354/3/5
f 356/3/5 354/3/5 355/3/5
f 361/2/5 358/2/5 357/2/5
f 362/2/5 358/2/5 361/2/5
f 363/2/5 360/2/5 359/2/5
f 364/2/5 360/2/5 363/2/5
f 365/3/5 362/3/5 361/3/5
f 366/3/5 362/3/5 365/3/5
f 367/3/5 364/3/5 363/3/5
f 368/3/5 364/3/5 367/3/5
f 369/2/5 366/2/5 365/2/5
f 370/2/5 366/2/5 369/2/5
f 371/2/5 368/2/5 367/2/5
f 372/2/5 368/2/5 371/2/5
f 373/4/5 370/4/5 369/4/5
f 374/4/5 370/4/5 373/4/5
f 375/4/5 372/4/5 371/4/5
f 376/4/5 372/4/5 375/4/5
f 377/6/5 374/6/5 373/6/5
f 378/6/5 374/6/5 377/6/5
f 379/6/5 376/6/5 375/6/5
f 380/6/5 376/6/5 379/6/5
f 385/5/5 382/5/5 381/5/5
f 386/5/5 382/5/5 385/5/5
f 387/5/5 384/5/5 383/5/5
f 388/5/5 384/5/5 387/5/5
f 394/3/5 390/3/5 389/3/5
f 395/3/5 390/3/5 394/3/5
f 399/2/5 392/2/5 391/2/5
f 400/2/5 392/2/5 399/2/5
f 401/2/5 394/2/5 393/2/5
f 402/3/5 395/3/5 394/3/5
f 402/2/5 394/2/5 401/2/5
f 403/2/5 396/2/5 395/2/5
f 403/3/5 395/3/5 402/3/5
f 404/2/5 396/2/5 403/2/5
f 405/2/5 398/2/5 397/2/5
f 406/2/5 398/2/5 405/2/5
f 407/3/5 400/3/5 399/3/5
f 408/3/5 400/3/5 407/3/5
f 409/3/5 402/3/5 401/3/5
f 410/3/5 402/3/5 409/3/5
f 411/3/5 404/3/5 403/3/5
f 412/3/5 404/3/5 411/3/5
f 413/3/5 406/3/5 405/3/5
f 414/3/5 406/3/5 413/3/5
f 415/2/5 408/2/5 407/2/5
f 416/2/5 408/2/5 415/2/5
f 417/2/5 410/2/5 409/2/5
f 418/2/5 410/2/5 417/2/5
f 419/2/5 412/2/5 411/2/5
f 420/2/5 412/2/5 419/2/5
f 421/2/5 414/2/5 413/2/5
f 422/2/5 414/2/5 421/2/5
f 423/4/5 416/4/5 415/4/5
f 424/4/5 416/4/5 423/4/5
f 425/4/5 418/4/5 417/4/5
f 426/4/5 418/4/5 425/4/5
f 427/4/5 420/4/5 419/4/5
f 428/4/5 420/4/5 427/4/5
f 429/4/5 422/4/5 421/4/5
f 430/4/5 422/4/5 429/4/5
f 431/6/5 424/6/5 423/6/5
f 432/6/5 424/6/5 431/6/5
f 433/6/5 426/6/5 425/6/5
f 434/6/5 426/6/5 433/6/5
f 435/6/5 428/6/5 427/6/5
f 436/6/5 428/6/5 435/6/5
f 437/6/5 430/6/5 429/6/5
f 438/6/5 430/6/5 437/6/5
f 443/3/5 440/3/5 439/3/5
f 444/3/5 440/3/5 443/3/5
f 445/3/5 442/3/5 441/3/5
f 446/3/5 442/3/5 445/3/5
f 447/3/6 448/3/6 451/3/6
f 451/3/6 448/3/6 452/3/6
f 449/3/6 450/3/6 453/3/6
f 453/3/6 450/3/6 454/3/6
f 455/5/6 456/5/6 459/5/6
f 457/5/6 458/5/6 460/5/6
f 455/5/6 459/5/6 461/5/6
f 461/5/6 459/5/6 462/5/6
f 460/5/6 458/5/6 463/5/6
f 463/5/6 458/5/6 464/5/6
f 465/5/6 466/5/6 469/5/6
f 469/5/6 466/5/6 470/5/6
f 467/5/6 468/5/6 471/5/6
f 471/5/6 468/5/6 472/5/6
f 473/3/6 474/3/6 478/3/6
f 478/3/6 474/3/6 479/3/6
f 475/2/6 476/2/6 483/2/6
f 483/2/6 476/2/6 484/2/6
f 477/2/6 478/2/6 485/2/6
f 478/3/6 479/3/6 486/3/6
f 485/2/6 478/2/6 486/2/6
f 479/2/6 480/2/6 487/2/6
f 486/3/6 479/3/6 487/3/6
f 487/2/6 480/2/6 488/2/6
f 481/2/6 482/2/6 489/2/6
f 489/2/6 482/2/6 490/2/6
f 483/3/6 484/3/6 491/3/6
f 491/3/6 484/3/6 492/3/6
f 485/3/6 486/3/6 493/3/6
f 493/3/6 486/3/6 494/3/6
f 487/3/6 488/3/6 495/3/6
f 495/3/6 488/3/6 496/3/6
f 489/3/6 490/3/6 497/3/6
f 497/3/6 490/3/6 498/3/6
f 491/2/6 492/2/6 499/2/6
f 499/2/6 492/2/6 500/2/6
f 493/2/6 494/2/6 501/2/6
f 501/2/6 494/2/6 502/2/6
f 495/2/6 496/2/6 503/2/6
f 503/2/6 496/2/6 504/2/6
f 497/2/6 498/2/6 505/2/6
f 505/2/6 498/2/6 506/2/6
f 499/4/6 500/4/6 507/4/6
f 507/4/6 500/4/6 508/4/6
f 501/4/6 502/4/6 509/4/6
f 509/4/6 502/4/6 510/4/6
f 503/4/6 504/4/6 511/4/6
f 511/4/6 504/4/6 512/4/6
f 505/4/6 506/4/6 513/4/6
f 513/4/6 506/4/6 514/4/6
f 507/6/6 508/6/6 515/6/6
f 515/6/6 508/6/6 516/6/6
f 509/6/6 510/6/6 517/6/6
f 517/6/6 510/6/6 518/6/6
f 511/6/6 512/6/6 519/6/6
f 519/6/6 512/6/6 520/6/6
f 513/6/6 514/6/6 521/6/6
f 521/6/6 514/6/6 522/6/6
f 523/3/6 524/3/6 527/3/6
f 524/2/6 525/2/6 528/2/6
f 527/3/6 524/3/6 528/3/6
f 525/3/6 526/3/6 529/3/6
f 528/2/6 525/2/6 529/2/6
f 529/3/6 526/3/6 530/3/6
f 523/3/6 527/3/6 531/3/6
f 531/3/6 527/3/6 532/3/6
f 530/3/6 526/3/6 535/3/6
f 535/3/6 526/3/6 536/3/6
f 532/4/6 533/4/6 537/4/6
f 531/4/6 532/4/6 537/4/6
f 537/4/6 533/4/6 538/4/6
f 535/4/6 536/4/6 539/4/6
f 534/4/6 535/4/6 539/4/6
f 539/4/6 536/4/6 540/4/6
f 537/3/6 538/3/6 541/3/6
f 539/3/6 540/3/6 542/3/6
f 537/3/6 541/3/6 543/3/6
f 541/2/6 542/2/6 544/2/6
f 543/3/6 541/3/6 544/3/6
f 542/3/6 540/3/6 545/3/6
f 544/2/6 542/2/6 545/2/6
f 545/3/6 540/3/6 546/3/6
f 547/2/6 548/2/6 551/2/6
f 551/2/6 548/2/6 552/2/6
f 549/2/6 550/2/6 553/2/6
f 553/2/6 550/2/6 554/2/6
f 551/3/6 552/3/6 555/3/6
f 555/3/6 552/3/6 556/3/6
f 553/3/6 554/3/6 557/3/6
f 557/3/6 554/3/6 558/3/6
f 555/2/6 556/2/6 559/2/6
f 559/2/6 556/2/6 560/2/6
f 557/2/6 558/2/6 561/2/6
f 561/2/6 558/2/6 562/2/6
f 559/4/6 560/4/6 563/4/6
f 563/4/6 560/4/6 564/4/6
f 561/4/6 562/4/6 565/4/6
f 565/4/6 562/4/6 566/4/6
f 563/6/6 564/6/6 567/6/6
f 567/6/6 564/6/6 568/6/6
f 565/6/6 566/6/6 569/6/6
f 569/6/6 566/6/6 570/6/6
f 571/5/6 572/5/6 573/5/6
f 573/5/6 572/5/6 574/5/6
f 574/5/6 572/5/6 575/5/6
f 575/5/6 572/5/6 576/5/6
f 574/5/6 575/5/6 577/5/6
f 577/5/6 575/5/6 578/5/6
