# MagicaVoxel @ Ephtracy

# group
g Yellow

# material
mtllib Yellow.mtl
usemtl palette

# normals
vn -1 0 0
vn 1 0 0
vn 0 0 1
vn 0 0 -1
vn 0 -1 0
vn 0 1 0

# texcoords
vt 0.0214844 0.5
vt 0.958984 0.5
vt 0.970703 0.5
vt 0.978516 0.5
vt 0.986328 0.5

# verts
v -11 1 -11
v -11 1 -14
v -11 2 -11
v -11 2 -14
v -10 0 -12
v -10 0 -13
v -10 1 -10
v -10 1 -11
v -10 1 -12
v -10 1 -13
v -10 1 -14
v -10 1 -15
v -10 2 -10
v -10 2 -11
v -10 2 -12
v -10 2 -13
v -10 2 -14
v -10 2 -15
v -10 3 -12
v -10 3 -13
v -9 0 -11
v -9 0 -12
v -9 0 -13
v -9 0 -14
v -9 1 -9
v -9 1 -10
v -9 1 -11
v -9 1 -12
v -9 1 -13
v -9 1 -14
v -9 1 -15
v -9 1 -16
v -9 2 -9
v -9 2 -10
v -9 2 -11
v -9 2 -12
v -9 2 -13
v -9 2 -14
v -9 2 -15
v -9 2 -16
v -9 3 -11
v -9 3 -12
v -9 3 -13
v -9 3 -14
v -8 0 -10
v -8 0 -11
v -8 0 -14
v -8 0 -15
v -8 0 -16
v -8 1 -7
v -8 1 -9
v -8 1 -10
v -8 1 -11
v -8 1 -14
v -8 1 -15
v -8 1 -16
v -8 2 -7
v -8 2 -9
v -8 2 -10
v -8 2 -11
v -8 2 -14
v -8 2 -15
v -8 2 -16
v -8 3 -10
v -8 3 -11
v -8 3 -14
v -8 3 -15
v -8 3 -16
v -7 0 -8
v -7 0 -10
v -7 1 -4
v -7 1 -7
v -7 1 -8
v -7 1 -10
v -7 2 -4
v -7 2 -7
v -7 2 -9
v -7 2 -10
v -7 3 -9
v -7 3 -10
v -6 0 -6
v -6 0 -8
v -6 1 -1
v -6 1 -4
v -6 1 -6
v -6 1 -8
v -6 2 -1
v -6 2 -4
v -6 2 -6
v -6 2 -9
v -6 3 -6
v -6 3 -9
v -5 3 -10
v -5 3 -14
v -5 4 -10
v -5 4 -14
v -3 0 -6
v -3 0 -9
v -3 1 -1
v -3 1 -6
v -3 1 -14
v -3 1 -15
v -3 1 -16
v -3 2 -1
v -3 2 -6
v -3 2 -14
v -3 2 -15
v -3 2 -16
v -3 3 -6
v -3 3 -9
v -2 0 -14
v -2 0 -15
v -2 0 -16
v -2 1 -14
v -2 1 -15
v -2 1 -16
v -2 2 -14
v -2 2 -15
v -2 2 -16
v -2 3 -14
v -2 3 -15
v -2 3 -16
v -6 0 -14
v -6 0 -15
v -6 0 -16
v -6 1 -14
v -6 1 -15
v -6 1 -16
v -6 2 -14
v -6 2 -15
v -6 2 -16
v -6 3 -14
v -6 3 -15
v -6 3 -16
v -5 0 -6
v -5 0 -9
v -5 1 -1
v -5 1 -6
v -5 1 -14
v -5 1 -15
v -5 1 -16
v -5 2 -1
v -5 2 -6
v -5 2 -14
v -5 2 -15
v -5 2 -16
v -5 3 -6
v -5 3 -9
v -3 3 -10
v -3 3 -14
v -3 4 -10
v -3 4 -14
v -2 0 -6
v -2 0 -8
v -2 1 -1
v -2 1 -4
v -2 1 -6
v -2 1 -8
v -2 2 -1
v -2 2 -4
v -2 2 -6
v -2 2 -9
v -2 3 -6
v -2 3 -9
v -1 0 -8
v -1 0 -10
v -1 1 -4
v -1 1 -7
v -1 1 -8
v -1 1 -10
v -1 2 -4
v -1 2 -7
v -1 2 -9
v -1 2 -10
v -1 3 -9
v -1 3 -10
v 0 0 -10
v 0 0 -11
v 0 0 -14
v 0 0 -15
v 0 0 -16
v 0 1 -7
v 0 1 -9
v 0 1 -10
v 0 1 -11
v 0 1 -14
v 0 1 -15
v 0 1 -16
v 0 2 -7
v 0 2 -9
v 0 2 -10
v 0 2 -11
v 0 2 -14
v 0 2 -15
v 0 2 -16
v 0 3 -10
v 0 3 -11
v 0 3 -14
v 0 3 -15
v 0 3 -16
v 1 0 -11
v 1 0 -12
v 1 0 -13
v 1 0 -14
v 1 1 -9
v 1 1 -10
v 1 1 -11
v 1 1 -12
v 1 1 -13
v 1 1 -14
v 1 1 -15
v 1 1 -16
v 1 2 -9
v 1 2 -10
v 1 2 -11
v 1 2 -12
v 1 2 -13
v 1 2 -14
v 1 2 -15
v 1 2 -16
v 1 3 -11
v 1 3 -12
v 1 3 -13
v 1 3 -14
v 2 0 -12
v 2 0 -13
v 2 1 -10
v 2 1 -11
v 2 1 -12
v 2 1 -13
v 2 1 -14
v 2 1 -15
v 2 2 -10
v 2 2 -11
v 2 2 -12
v 2 2 -13
v 2 2 -14
v 2 2 -15
v 2 3 -12
v 2 3 -13
v 3 1 -11
v 3 1 -14
v 3 2 -11
v 3 2 -14
v -6 1 -1
v -6 2 -1
v -5 1 -1
v -5 2 -1
v -3 1 -1
v -3 2 -1
v -2 1 -1
v -2 2 -1
v -7 1 -4
v -7 2 -4
v -6 1 -4
v -6 2 -4
v -2 1 -4
v -2 2 -4
v -1 1 -4
v -1 2 -4
v -6 0 -6
v -6 1 -6
v -6 2 -6
v -6 3 -6
v -5 0 -6
v -5 1 -6
v -5 2 -6
v -5 3 -6
v -3 0 -6
v -3 1 -6
v -3 2 -6
v -3 3 -6
v -2 0 -6
v -2 1 -6
v -2 2 -6
v -2 3 -6
v -8 1 -7
v -8 2 -7
v -7 1 -7
v -7 2 -7
v -1 1 -7
v -1 2 -7
v 0 1 -7
v 0 2 -7
v -7 0 -8
v -7 1 -8
v -6 0 -8
v -6 1 -8
v -2 0 -8
v -2 1 -8
v -1 0 -8
v -1 1 -8
v -9 1 -9
v -9 2 -9
v -8 1 -9
v -8 2 -9
v -7 2 -9
v -7 3 -9
v -6 2 -9
v -6 3 -9
v -5 0 -9
v -5 3 -9
v -3 0 -9
v -3 3 -9
v -2 2 -9
v -2 3 -9
v -1 2 -9
v -1 3 -9
v 0 1 -9
v 0 2 -9
v 1 1 -9
v 1 2 -9
v -10 1 -10
v -10 2 -10
v -9 1 -10
v -9 2 -10
v -8 0 -10
v -8 1 -10
v -8 2 -10
v -8 3 -10
v -7 0 -10
v -7 1 -10
v -7 2 -10
v -7 3 -10
v -5 3 -10
v -5 4 -10
v -3 3 -10
v -3 4 -10
v -1 0 -10
v -1 1 -10
v -1 2 -10
v -1 3 -10
v 0 0 -10
v 0 1 -10
v 0 2 -10
v 0 3 -10
v 1 1 -10
v 1 2 -10
v 2 1 -10
v 2 2 -10
v -11 1 -11
v -11 2 -11
v -10 1 -11
v -10 2 -11
v -9 0 -11
v -9 1 -11
v -9 2 -11
v -9 3 -11
v -8 0 -11
v -8 1 -11
v -8 2 -11
v -8 3 -11
v 0 0 -11
v 0 1 -11
v 0 2 -11
v 0 3 -11
v 1 0 -11
v 1 1 -11
v 1 2 -11
v 1 3 -11
v 2 1 -11
v 2 2 -11
v 3 1 -11
v 3 2 -11
v -10 0 -12
v -10 1 -12
v -10 2 -12
v -10 3 -12
v -9 0 -12
v -9 1 -12
v -9 2 -12
v -9 3 -12
v 1 0 -12
v 1 1 -12
v 1 2 -12
v 1 3 -12
v 2 0 -12
v 2 1 -12
v 2 2 -12
v 2 3 -12
v -10 0 -13
v -10 1 -13
v -10 2 -13
v -10 3 -13
v -9 0 -13
v -9 1 -13
v -9 2 -13
v -9 3 -13
v 1 0 -13
v 1 1 -13
v 1 2 -13
v 1 3 -13
v 2 0 -13
v 2 1 -13
v 2 2 -13
v 2 3 -13
v -11 1 -14
v -11 2 -14
v -10 1 -14
v -10 2 -14
v -9 0 -14
v -9 1 -14
v -9 2 -14
v -9 3 -14
v -8 0 -14
v -8 1 -14
v -8 2 -14
v -8 3 -14
v -6 0 -14
v -6 1 -14
v -6 2 -14
v -6 3 -14
v -5 0 -14
v -5 1 -14
v -5 2 -14
v -5 3 -14
v -5 4 -14
v -3 0 -14
v -3 1 -14
v -3 2 -14
v -3 3 -14
v -3 4 -14
v -2 0 -14
v -2 1 -14
v -2 2 -14
v -2 3 -14
v 0 0 -14
v 0 1 -14
v 0 2 -14
v 0 3 -14
v 1 0 -14
v 1 1 -14
v 1 2 -14
v 1 3 -14
v 2 1 -14
v 2 2 -14
v 3 1 -14
v 3 2 -14
v -10 1 -15
v -10 2 -15
v -9 1 -15
v -9 2 -15
v 1 1 -15
v 1 2 -15
v 2 1 -15
v 2 2 -15
v -9 1 -16
v -9 2 -16
v -8 0 -16
v -8 1 -16
v -8 2 -16
v -8 3 -16
v -6 0 -16
v -6 1 -16
v -6 2 -16
v -6 3 -16
v -5 1 -16
v -5 2 -16
v -3 1 -16
v -3 2 -16
v -2 0 -16
v -2 1 -16
v -2 2 -16
v -2 3 -16
v 0 0 -16
v 0 1 -16
v 0 2 -16
v 0 3 -16
v 1 1 -16
v 1 2 -16
v -6 0 -6
v -5 0 -6
v -3 0 -6
v -2 0 -6
v -7 0 -8
v -6 0 -8
v -2 0 -8
v -1 0 -8
v -5 0 -9
v -3 0 -9
v -8 0 -10
v -7 0 -10
v -1 0 -10
v 0 0 -10
v -9 0 -11
v -8 0 -11
v 0 0 -11
v 1 0 -11
v -10 0 -12
v -9 0 -12
v 1 0 -12
v 2 0 -12
v -10 0 -13
v -9 0 -13
v 1 0 -13
v 2 0 -13
v -9 0 -14
v -8 0 -14
v -6 0 -14
v -5 0 -14
v -3 0 -14
v -2 0 -14
v 0 0 -14
v 1 0 -14
v -8 0 -15
v -6 0 -15
v -2 0 -15
v 0 0 -15
v -8 0 -16
v -6 0 -16
v -2 0 -16
v 0 0 -16
v -6 1 -1
v -5 1 -1
v -3 1 -1
v -2 1 -1
v -7 1 -4
v -6 1 -4
v -2 1 -4
v -1 1 -4
v -6 1 -6
v -5 1 -6
v -3 1 -6
v -2 1 -6
v -8 1 -7
v -7 1 -7
v -1 1 -7
v 0 1 -7
v -7 1 -8
v -6 1 -8
v -2 1 -8
v -1 1 -8
v -9 1 -9
v -8 1 -9
v 0 1 -9
v 1 1 -9
v -10 1 -10
v -9 1 -10
v -8 1 -10
v -7 1 -10
v -1 1 -10
v 0 1 -10
v 1 1 -10
v 2 1 -10
v -11 1 -11
v -10 1 -11
v -9 1 -11
v -8 1 -11
v 0 1 -11
v 1 1 -11
v 2 1 -11
v 3 1 -11
v -10 1 -12
v -9 1 -12
v 1 1 -12
v 2 1 -12
v -10 1 -13
v -9 1 -13
v 1 1 -13
v 2 1 -13
v -11 1 -14
v -10 1 -14
v -9 1 -14
v -8 1 -14
v -6 1 -14
v -5 1 -14
v -3 1 -14
v -2 1 -14
v 0 1 -14
v 1 1 -14
v 2 1 -14
v 3 1 -14
v -10 1 -15
v -9 1 -15
v -8 1 -15
v -6 1 -15
v -5 1 -15
v -3 1 -15
v -2 1 -15
v 0 1 -15
v 1 1 -15
v 2 1 -15
v -9 1 -16
v -8 1 -16
v -6 1 -16
v -5 1 -16
v -3 1 -16
v -2 1 -16
v 0 1 -16
v 1 1 -16
v -6 2 -1
v -5 2 -1
v -3 2 -1
v -2 2 -1
v -7 2 -4
v -6 2 -4
v -2 2 -4
v -1 2 -4
v -6 2 -6
v -5 2 -6
v -3 2 -6
v -2 2 -6
v -8 2 -7
v -7 2 -7
v -1 2 -7
v 0 2 -7
v -9 2 -9
v -8 2 -9
v -7 2 -9
v -6 2 -9
v -2 2 -9
v -1 2 -9
v 0 2 -9
v 1 2 -9
v -10 2 -10
v -9 2 -10
v -8 2 -10
v -7 2 -10
v -1 2 -10
v 0 2 -10
v 1 2 -10
v 2 2 -10
v -11 2 -11
v -10 2 -11
v -9 2 -11
v -8 2 -11
v 0 2 -11
v 1 2 -11
v 2 2 -11
v 3 2 -11
v -10 2 -12
v -9 2 -12
v 1 2 -12
v 2 2 -12
v -10 2 -13
v -9 2 -13
v 1 2 -13
v 2 2 -13
v -11 2 -14
v -10 2 -14
v -9 2 -14
v -8 2 -14
v -6 2 -14
v -5 2 -14
v -3 2 -14
v -2 2 -14
v 0 2 -14
v 1 2 -14
v 2 2 -14
v 3 2 -14
v -10 2 -15
v -9 2 -15
v -8 2 -15
v -6 2 -15
v -5 2 -15
v -3 2 -15
v -2 2 -15
v 0 2 -15
v 1 2 -15
v 2 2 -15
v -9 2 -16
v -8 2 -16
v -6 2 -16
v -5 2 -16
v -3 2 -16
v -2 2 -16
v 0 2 -16
v 1 2 -16
v -6 3 -6
v -5 3 -6
v -3 3 -6
v -2 3 -6
v -7 3 -9
v -6 3 -9
v -5 3 -9
v -3 3 -9
v -2 3 -9
v -1 3 -9
v -8 3 -10
v -7 3 -10
v -6 3 -10
v -5 3 -10
v -3 3 -10
v -2 3 -10
v -1 3 -10
v 0 3 -10
v -9 3 -11
v -8 3 -11
v -7 3 -11
v -6 3 -11
v -2 3 -11
v -1 3 -11
v 0 3 -11
v 1 3 -11
v -10 3 -12
v -9 3 -12
v -8 3 -12
v -7 3 -12
v -1 3 -12
v 0 3 -12
v 1 3 -12
v 2 3 -12
v -10 3 -13
v -9 3 -13
v 1 3 -13
v 2 3 -13
v -9 3 -14
v -8 3 -14
v -6 3 -14
v -5 3 -14
v -3 3 -14
v -2 3 -14
v 0 3 -14
v 1 3 -14
v -8 3 -15
v -6 3 -15
v -2 3 -15
v 0 3 -15
v -8 3 -16
v -6 3 -16
v -2 3 -16
v 0 3 -16
v -5 4 -10
v -3 4 -10
v -5 4 -14
v -3 4 -14

# faces
f 3/4/1 2/4/1 1/4/1
f 4/4/1 2/4/1 3/4/1
f 9/2/1 6/2/1 5/2/1
f 10/2/1 6/2/1 9/2/1
f 13/1/1 8/1/1 7/1/1
f 14/1/1 8/1/1 13/1/1
f 17/1/1 12/1/1 11/1/1
f 18/1/1 12/1/1 17/1/1
f 19/2/1 16/2/1 15/2/1
f 20/2/1 16/2/1 19/2/1
f 27/2/1 22/2/1 21/2/1
f 28/2/1 22/2/1 27/2/1
f 29/2/1 24/2/1 23/2/1
f 30/2/1 24/2/1 29/2/1
f 33/1/1 26/1/1 25/1/1
f 34/1/1 26/1/1 33/1/1
f 39/1/1 32/1/1 31/1/1
f 40/1/1 32/1/1 39/1/1
f 41/2/1 36/2/1 35/2/1
f 42/2/1 36/2/1 41/2/1
f 43/2/1 38/2/1 37/2/1
f 44/2/1 38/2/1 43/2/1
f 52/2/1 46/2/1 45/2/1
f 53/2/1 46/2/1 52/2/1
f 54/2/1 48/2/1 47/2/1
f 55/5/1 49/5/1 48/5/1
f 55/2/1 48/2/1 54/2/1
f 56/5/1 49/5/1 55/5/1
f 57/4/1 51/4/1 50/4/1
f 58/4/1 51/4/1 57/4/1
f 64/2/1 60/2/1 59/2/1
f 65/2/1 60/2/1 64/2/1
f 66/1/1 62/1/1 61/1/1
f 67/5/1 63/5/1 62/5/1
f 67/1/1 62/1/1 66/1/1
f 68/5/1 63/5/1 67/5/1
f 73/2/1 70/2/1 69/2/1
f 74/2/1 70/2/1 73/2/1
f 75/1/1 72/1/1 71/1/1
f 76/1/1 72/1/1 75/1/1
f 79/2/1 78/2/1 77/2/1
f 80/2/1 78/2/1 79/2/1
f 85/2/1 82/2/1 81/2/1
f 86/2/1 82/2/1 85/2/1
f 87/1/1 84/1/1 83/1/1
f 88/1/1 84/1/1 87/1/1
f 91/2/1 90/2/1 89/2/1
f 92/2/1 90/2/1 91/2/1
f 95/5/1 94/5/1 93/5/1
f 96/5/1 94/5/1 95/5/1
f 100/2/1 98/2/1 97/2/1
f 104/1/1 100/1/1 99/1/1
f 105/2/1 98/2/1 100/2/1
f 105/1/1 100/1/1 104/1/1
f 106/1/1 102/1/1 101/1/1
f 107/4/1 103/4/1 102/4/1
f 107/1/1 102/1/1 106/1/1
f 108/4/1 103/4/1 107/4/1
f 109/2/1 98/2/1 105/2/1
f 110/2/1 98/2/1 109/2/1
f 114/2/1 112/2/1 111/2/1
f 115/5/1 113/5/1 112/5/1
f 115/2/1 112/2/1 114/2/1
f 116/5/1 113/5/1 115/5/1
f 120/1/1 118/1/1 117/1/1
f 121/5/1 119/5/1 118/5/1
f 121/1/1 118/1/1 120/1/1
f 122/5/1 119/5/1 121/5/1
f 123/2/2 124/2/2 126/2/2
f 124/5/2 125/5/2 127/5/2
f 126/2/2 124/2/2 127/2/2
f 127/5/2 125/5/2 128/5/2
f 129/1/2 130/1/2 132/1/2
f 130/5/2 131/5/2 133/5/2
f 132/1/2 130/1/2 133/1/2
f 133/5/2 131/5/2 134/5/2
f 135/2/2 136/2/2 138/2/2
f 137/1/2 138/1/2 142/1/2
f 138/2/2 136/2/2 143/2/2
f 142/1/2 138/1/2 143/1/2
f 139/1/2 140/1/2 144/1/2
f 140/4/2 141/4/2 145/4/2
f 144/1/2 140/1/2 145/1/2
f 145/4/2 141/4/2 146/4/2
f 143/2/2 136/2/2 147/2/2
f 147/2/2 136/2/2 148/2/2
f 149/5/2 150/5/2 151/5/2
f 151/5/2 150/5/2 152/5/2
f 153/2/2 154/2/2 157/2/2
f 157/2/2 154/2/2 158/2/2
f 155/1/2 156/1/2 159/1/2
f 159/1/2 156/1/2 160/1/2
f 161/2/2 162/2/2 163/2/2
f 163/2/2 162/2/2 164/2/2
f 165/2/2 166/2/2 169/2/2
f 169/2/2 166/2/2 170/2/2
f 167/1/2 168/1/2 171/1/2
f 171/1/2 168/1/2 172/1/2
f 173/2/2 174/2/2 175/2/2
f 175/2/2 174/2/2 176/2/2
f 177/2/2 178/2/2 184/2/2
f 184/2/2 178/2/2 185/2/2
f 179/2/2 180/2/2 186/2/2
f 180/5/2 181/5/2 187/5/2
f 186/2/2 180/2/2 187/2/2
f 187/5/2 181/5/2 188/5/2
f 182/4/2 183/4/2 189/4/2
f 189/4/2 183/4/2 190/4/2
f 191/2/2 192/2/2 196/2/2
f 196/2/2 192/2/2 197/2/2
f 193/1/2 194/1/2 198/1/2
f 194/5/2 195/5/2 199/5/2
f 198/1/2 194/1/2 199/1/2
f 199/5/2 195/5/2 200/5/2
f 201/2/2 202/2/2 207/2/2
f 207/2/2 202/2/2 208/2/2
f 203/2/2 204/2/2 209/2/2
f 209/2/2 204/2/2 210/2/2
f 205/1/2 206/1/2 213/1/2
f 213/1/2 206/1/2 214/1/2
f 211/1/2 212/1/2 219/1/2
f 219/1/2 212/1/2 220/1/2
f 215/2/2 216/2/2 221/2/2
f 221/2/2 216/2/2 222/2/2
f 217/2/2 218/2/2 223/2/2
f 223/2/2 218/2/2 224/2/2
f 225/2/2 226/2/2 229/2/2
f 229/2/2 226/2/2 230/2/2
f 227/1/2 228/1/2 233/1/2
f 233/1/2 228/1/2 234/1/2
f 231/1/2 232/1/2 237/1/2
f 237/1/2 232/1/2 238/1/2
f 235/2/2 236/2/2 239/2/2
f 239/2/2 236/2/2 240/2/2
f 241/4/2 242/4/2 243/4/2
f 243/4/2 242/4/2 244/4/2
f 247/1/3 246/1/3 245/1/3
f 248/1/3 246/1/3 247/1/3
f 251/1/3 250/1/3 249/1/3
f 252/1/3 250/1/3 251/1/3
f 255/1/3 254/1/3 253/1/3
f 256/1/3 254/1/3 255/1/3
f 259/1/3 258/1/3 257/1/3
f 260/1/3 258/1/3 259/1/3
f 265/2/3 262/2/3 261/2/3
f 266/2/3 262/2/3 265/2/3
f 267/2/3 264/2/3 263/2/3
f 268/2/3 264/2/3 267/2/3
f 273/2/3 270/2/3 269/2/3
f 274/2/3 270/2/3 273/2/3
f 275/2/3 272/2/3 271/2/3
f 276/2/3 272/2/3 275/2/3
f 279/4/3 278/4/3 277/4/3
f 280/4/3 278/4/3 279/4/3
f 283/4/3 282/4/3 281/4/3
f 284/4/3 282/4/3 283/4/3
f 287/2/3 286/2/3 285/2/3
f 288/2/3 286/2/3 287/2/3
f 291/2/3 290/2/3 289/2/3
f 292/2/3 290/2/3 291/2/3
f 295/1/3 294/1/3 293/1/3
f 296/1/3 294/1/3 295/1/3
f 299/2/3 298/2/3 297/2/3
f 300/2/3 298/2/3 299/2/3
f 303/1/3 302/1/3 301/1/3
f 304/1/3 302/1/3 303/1/3
f 307/2/3 306/2/3 305/2/3
f 308/2/3 306/2/3 307/2/3
f 311/1/3 310/1/3 309/1/3
f 312/1/3 310/1/3 311/1/3
f 315/1/3 314/1/3 313/1/3
f 316/1/3 314/1/3 315/1/3
f 321/2/3 318/2/3 317/2/3
f 322/2/3 318/2/3 321/2/3
f 323/2/3 320/2/3 319/2/3
f 324/2/3 320/2/3 323/2/3
f 327/5/3 326/5/3 325/5/3
f 328/5/3 326/5/3 327/5/3
f 333/2/3 330/2/3 329/2/3
f 334/2/3 330/2/3 333/2/3
f 335/2/3 332/2/3 331/2/3
f 336/2/3 332/2/3 335/2/3
f 339/1/3 338/1/3 337/1/3
f 340/1/3 338/1/3 339/1/3
f 343/4/3 342/4/3 341/4/3
f 344/4/3 342/4/3 343/4/3
f 349/2/3 346/2/3 345/2/3
f 350/2/3 346/2/3 349/2/3
f 351/2/3 348/2/3 347/2/3
f 352/2/3 348/2/3 351/2/3
f 357/2/3 354/2/3 353/2/3
f 358/2/3 354/2/3 357/2/3
f 359/2/3 356/2/3 355/2/3
f 360/2/3 356/2/3 359/2/3
f 363/4/3 362/4/3 361/4/3
f 364/4/3 362/4/3 363/4/3
f 369/2/3 366/2/3 365/2/3
f 370/2/3 366/2/3 369/2/3
f 371/2/3 368/2/3 367/2/3
f 372/2/3 368/2/3 371/2/3
f 377/2/3 374/2/3 373/2/3
f 378/2/3 374/2/3 377/2/3
f 379/2/3 376/2/3 375/2/3
f 380/2/3 376/2/3 379/2/3
f 381/2/4 382/2/4 385/2/4
f 385/2/4 382/2/4 386/2/4
f 383/2/4 384/2/4 387/2/4
f 387/2/4 384/2/4 388/2/4
f 389/2/4 390/2/4 393/2/4
f 393/2/4 390/2/4 394/2/4
f 391/2/4 392/2/4 395/2/4
f 395/2/4 392/2/4 396/2/4
f 397/4/4 398/4/4 399/4/4
f 399/4/4 398/4/4 400/4/4
f 401/2/4 402/2/4 405/2/4
f 405/2/4 402/2/4 406/2/4
f 403/2/4 404/2/4 407/2/4
f 407/2/4 404/2/4 408/2/4
f 409/2/4 410/2/4 413/2/4
f 413/2/4 410/2/4 414/2/4
f 411/1/4 412/1/4 415/1/4
f 415/1/4 412/1/4 416/1/4
f 415/1/4 416/1/4 418/1/4
f 413/1/4 414/1/4 418/1/4
f 414/1/4 415/1/4 418/1/4
f 418/1/4 416/1/4 419/1/4
f 419/1/4 416/1/4 420/1/4
f 416/5/4 417/5/4 421/5/4
f 420/1/4 416/1/4 421/1/4
f 421/5/4 417/5/4 422/5/4
f 418/2/4 419/2/4 423/2/4
f 423/2/4 419/2/4 424/2/4
f 420/1/4 421/1/4 425/1/4
f 425/1/4 421/1/4 426/1/4
f 427/2/4 428/2/4 431/2/4
f 431/2/4 428/2/4 432/2/4
f 429/2/4 430/2/4 433/2/4
f 433/2/4 430/2/4 434/2/4
f 435/4/4 436/4/4 437/4/4
f 437/4/4 436/4/4 438/4/4
f 439/1/4 440/1/4 441/1/4
f 441/1/4 440/1/4 442/1/4
f 443/1/4 444/1/4 445/1/4
f 445/1/4 444/1/4 446/1/4
f 447/1/4 448/1/4 450/1/4
f 450/1/4 448/1/4 451/1/4
f 449/5/4 450/5/4 453/5/4
f 451/5/4 452/5/4 453/5/4
f 450/5/4 451/5/4 453/5/4
f 453/5/4 452/5/4 454/5/4
f 454/5/4 452/5/4 455/5/4
f 455/5/4 452/5/4 456/5/4
f 454/4/4 455/4/4 457/4/4
f 457/4/4 455/4/4 458/4/4
f 459/4/4 460/4/4 462/4/4
f 462/4/4 460/4/4 463/4/4
f 462/5/4 463/5/4 465/5/4
f 463/5/4 464/5/4 465/5/4
f 461/5/4 462/5/4 465/5/4
f 465/5/4 464/5/4 466/5/4
f 466/5/4 464/5/4 467/5/4
f 467/5/4 464/5/4 468/5/4
f 466/1/4 467/1/4 469/1/4
f 469/1/4 467/1/4 470/1/4
f 476/2/5 472/2/5 471/2/5
f 477/2/5 474/2/5 473/2/5
f 479/2/5 476/2/5 475/2/5
f 479/2/5 472/2/5 476/2/5
f 480/2/5 478/2/5 477/2/5
f 480/2/5 477/2/5 473/2/5
f 482/2/5 479/2/5 475/2/5
f 483/2/5 478/2/5 480/2/5
f 486/2/5 482/2/5 481/2/5
f 487/2/5 484/2/5 483/2/5
f 490/2/5 486/2/5 485/2/5
f 491/2/5 488/2/5 487/2/5
f 493/2/5 490/2/5 489/2/5
f 494/2/5 486/2/5 490/2/5
f 494/2/5 490/2/5 493/2/5
f 495/2/5 492/2/5 491/2/5
f 495/2/5 491/2/5 487/2/5
f 496/2/5 492/2/5 495/2/5
f 497/2/5 486/2/5 494/2/5
f 498/2/5 482/2/5 486/2/5
f 498/2/5 486/2/5 497/2/5
f 499/2/5 479/2/5 482/2/5
f 499/2/5 482/2/5 498/2/5
f 500/1/5 480/1/5 479/1/5
f 500/2/5 479/2/5 499/2/5
f 501/2/5 483/2/5 480/2/5
f 501/1/5 480/1/5 500/1/5
f 501/2/5 487/2/5 483/2/5
f 501/2/5 495/2/5 487/2/5
f 502/2/5 495/2/5 501/2/5
f 503/2/5 495/2/5 502/2/5
f 504/2/5 495/2/5 503/2/5
f 505/2/5 499/2/5 498/2/5
f 506/2/5 499/2/5 505/2/5
f 507/2/5 503/2/5 502/2/5
f 508/2/5 503/2/5 507/2/5
f 509/5/5 506/5/5 505/5/5
f 510/5/5 506/5/5 509/5/5
f 511/5/5 508/5/5 507/5/5
f 512/5/5 508/5/5 511/5/5
f 518/1/5 514/1/5 513/1/5
f 519/1/5 516/1/5 515/1/5
f 521/1/5 518/1/5 517/1/5
f 521/1/5 514/1/5 518/1/5
f 522/1/5 514/1/5 521/1/5
f 523/1/5 520/1/5 519/1/5
f 523/1/5 519/1/5 515/1/5
f 524/1/5 520/1/5 523/1/5
f 526/1/5 521/1/5 517/1/5
f 527/1/5 520/1/5 524/1/5
f 529/4/5 526/4/5 525/4/5
f 529/1/5 521/1/5 526/1/5
f 530/1/5 521/1/5 529/1/5
f 531/1/5 527/1/5 524/1/5
f 532/4/5 528/4/5 527/4/5
f 532/1/5 527/1/5 531/1/5
f 534/4/5 529/4/5 525/4/5
f 535/4/5 528/4/5 532/4/5
f 538/1/5 534/1/5 533/1/5
f 539/4/5 529/4/5 534/4/5
f 539/1/5 534/1/5 538/1/5
f 540/4/5 529/4/5 539/4/5
f 541/4/5 535/4/5 532/4/5
f 542/1/5 536/1/5 535/1/5
f 542/4/5 535/4/5 541/4/5
f 543/1/5 536/1/5 542/1/5
f 546/1/5 538/1/5 537/1/5
f 546/1/5 539/1/5 538/1/5
f 547/1/5 539/1/5 546/1/5
f 548/1/5 539/1/5 547/1/5
f 549/1/5 543/1/5 542/1/5
f 549/1/5 544/1/5 543/1/5
f 550/1/5 544/1/5 549/1/5
f 551/1/5 544/1/5 550/1/5
f 553/1/5 547/1/5 546/1/5
f 553/4/5 546/4/5 545/4/5
f 554/1/5 547/1/5 553/1/5
f 555/1/5 551/1/5 550/1/5
f 556/4/5 552/4/5 551/4/5
f 556/1/5 551/1/5 555/1/5
f 557/4/5 553/4/5 545/4/5
f 560/4/5 552/4/5 556/4/5
f 561/4/5 557/4/5 545/4/5
f 562/1/5 558/1/5 557/1/5
f 562/4/5 557/4/5 561/4/5
f 563/1/5 558/1/5 562/1/5
f 570/1/5 560/1/5 559/1/5
f 571/4/5 552/4/5 560/4/5
f 571/1/5 560/1/5 570/1/5
f 572/4/5 552/4/5 571/4/5
f 573/1/5 563/1/5 562/1/5
f 573/1/5 564/1/5 563/1/5
f 574/1/5 564/1/5 573/1/5
f 575/1/5 564/1/5 574/1/5
f 576/1/5 566/1/5 565/1/5
f 577/1/5 566/1/5 576/1/5
f 578/1/5 568/1/5 567/1/5
f 579/1/5 568/1/5 578/1/5
f 580/1/5 570/1/5 569/1/5
f 580/1/5 571/1/5 570/1/5
f 581/1/5 571/1/5 580/1/5
f 582/1/5 571/1/5 581/1/5
f 583/1/5 575/1/5 574/1/5
f 584/1/5 575/1/5 583/1/5
f 585/4/5 577/4/5 576/4/5
f 586/4/5 577/4/5 585/4/5
f 587/4/5 579/4/5 578/4/5
f 588/4/5 579/4/5 587/4/5
f 589/1/5 581/1/5 580/1/5
f 590/1/5 581/1/5 589/1/5
f 591/1/6 592/1/6 596/1/6
f 593/1/6 594/1/6 597/1/6
f 595/1/6 596/1/6 599/1/6
f 596/1/6 592/1/6 599/1/6
f 599/1/6 592/1/6 600/1/6
f 597/1/6 598/1/6 601/1/6
f 593/1/6 597/1/6 601/1/6
f 601/1/6 598/1/6 602/1/6
f 595/1/6 599/1/6 604/1/6
f 602/1/6 598/1/6 605/1/6
f 603/4/6 604/4/6 608/4/6
f 604/1/6 599/1/6 609/1/6
f 608/4/6 604/4/6 609/4/6
f 609/1/6 599/1/6 610/1/6
f 602/1/6 605/1/6 611/1/6
f 605/4/6 606/4/6 612/4/6
f 611/1/6 605/1/6 612/1/6
f 612/4/6 606/4/6 613/4/6
f 607/1/6 608/1/6 616/1/6
f 608/4/6 609/4/6 617/4/6
f 616/1/6 608/1/6 617/1/6
f 617/4/6 609/4/6 618/4/6
f 612/4/6 613/4/6 619/4/6
f 613/1/6 614/1/6 620/1/6
f 619/4/6 613/4/6 620/4/6
f 620/1/6 614/1/6 621/1/6
f 615/1/6 616/1/6 624/1/6
f 616/1/6 617/1/6 624/1/6
f 624/1/6 617/1/6 625/1/6
f 625/1/6 617/1/6 626/1/6
f 621/1/6 622/1/6 627/1/6
f 620/1/6 621/1/6 627/1/6
f 627/1/6 622/1/6 628/1/6
f 628/1/6 622/1/6 629/1/6
f 624/1/6 625/1/6 631/1/6
f 623/4/6 624/4/6 631/4/6
f 631/1/6 625/1/6 632/1/6
f 628/1/6 629/1/6 633/1/6
f 629/4/6 630/4/6 634/4/6
f 633/1/6 629/1/6 634/1/6
f 623/4/6 631/4/6 635/4/6
f 634/4/6 630/4/6 638/4/6
f 623/4/6 635/4/6 639/4/6
f 635/1/6 636/1/6 640/1/6
f 639/4/6 635/4/6 640/4/6
f 640/1/6 636/1/6 641/1/6
f 637/1/6 638/1/6 648/1/6
f 638/4/6 630/4/6 649/4/6
f 648/1/6 638/1/6 649/1/6
f 649/4/6 630/4/6 650/4/6
f 640/1/6 641/1/6 651/1/6
f 641/1/6 642/1/6 651/1/6
f 651/1/6 642/1/6 652/1/6
f 652/1/6 642/1/6 653/1/6
f 643/1/6 644/1/6 654/1/6
f 654/1/6 644/1/6 655/1/6
f 645/1/6 646/1/6 656/1/6
f 656/1/6 646/1/6 657/1/6
f 647/1/6 648/1/6 658/1/6
f 648/1/6 649/1/6 658/1/6
f 658/1/6 649/1/6 659/1/6
f 659/1/6 649/1/6 660/1/6
f 652/1/6 653/1/6 661/1/6
f 661/1/6 653/1/6 662/1/6
f 654/4/6 655/4/6 663/4/6
f 663/4/6 655/4/6 664/4/6
f 656/4/6 657/4/6 665/4/6
f 665/4/6 657/4/6 666/4/6
f 658/1/6 659/1/6 667/1/6
f 667/1/6 659/1/6 668/1/6
f 669/2/6 670/2/6 674/2/6
f 674/2/6 670/2/6 675/2/6
f 671/2/6 672/2/6 676/2/6
f 676/2/6 672/2/6 677/2/6
f 674/2/6 675/2/6 680/2/6
f 673/2/6 674/2/6 680/2/6
f 680/2/6 675/2/6 681/2/6
f 675/1/6 676/1/6 682/1/6
f 681/2/6 675/2/6 682/2/6
f 677/2/6 678/2/6 683/2/6
f 682/1/6 676/1/6 683/1/6
f 676/2/6 677/2/6 683/2/6
f 683/2/6 678/2/6 684/2/6
f 684/2/6 678/2/6 685/2/6
f 679/2/6 680/2/6 688/2/6
f 680/2/6 681/2/6 688/2/6
f 688/2/6 681/2/6 689/2/6
f 681/1/6 682/1/6 690/1/6
f 689/2/6 681/2/6 690/2/6
f 684/2/6 685/2/6 691/2/6
f 683/1/6 684/1/6 691/1/6
f 685/2/6 686/2/6 691/2/6
f 691/2/6 686/2/6 692/2/6
f 692/2/6 686/2/6 693/2/6
f 688/2/6 689/2/6 696/2/6
f 687/2/6 688/2/6 696/2/6
f 696/2/6 689/2/6 697/2/6
f 689/1/6 690/1/6 698/1/6
f 697/2/6 689/2/6 698/2/6
f 693/2/6 694/2/6 699/2/6
f 692/2/6 693/2/6 699/2/6
f 691/1/6 692/1/6 699/1/6
f 699/2/6 694/2/6 700/2/6
f 700/2/6 694/2/6 701/2/6
f 696/2/6 697/2/6 703/2/6
f 695/2/6 696/2/6 703/2/6
f 703/2/6 697/2/6 704/2/6
f 701/2/6 702/2/6 705/2/6
f 700/2/6 701/2/6 705/2/6
f 705/2/6 702/2/6 706/2/6
f 704/2/6 697/2/6 707/2/6
f 697/1/6 698/1/6 708/1/6
f 707/2/6 697/2/6 708/2/6
f 698/1/6 690/1/6 709/1/6
f 708/1/6 698/1/6 709/1/6
f 690/1/6 682/1/6 709/1/6
f 709/1/6 682/1/6 710/1/6
f 683/1/6 691/1/6 711/1/6
f 691/1/6 699/1/6 711/1/6
f 699/1/6 700/1/6 711/1/6
f 711/1/6 700/1/6 712/1/6
f 700/2/6 705/2/6 713/2/6
f 712/1/6 700/1/6 713/1/6
f 713/2/6 705/2/6 714/2/6
f 708/1/6 709/1/6 715/1/6
f 715/1/6 709/1/6 716/1/6
f 712/1/6 713/1/6 717/1/6
f 717/1/6 713/1/6 718/1/6
f 715/5/6 716/5/6 719/5/6
f 719/5/6 716/5/6 720/5/6
f 717/5/6 718/5/6 721/5/6
f 721/5/6 718/5/6 722/5/6
f 723/5/6 724/5/6 725/5/6
f 725/5/6 724/5/6 726/5/6
